#!OML:ASF F:\VICON\USERDATA\Patient Classification 1\PLAYGROUND\JustinFriday\JustinFriday.ASF
:FULLY-SPECIFIED
:DEGREES
2751
root 13.7293 10.1136 -11.5258 -786.597 -173.902 15.9253
lowerback 14.0729 3.83704 3.26943
upperback 1.36593 5.71226 4.42062
thorax -6.56716 2.66674 1.74091
lowerneck 23.5323 -3.80243 0.344754
upperneck 14.5175 -9.1417 11.1991
head 1.31843 -6.19884 3.9057
rclavicle 5.725e-014 -1.90833e-014
rhumerus 54.9641 -40.8733 -13.3464
rradius 72.6527
rwrist 368.355
rhand 4.83284 -28.8108
rfingers 7.12502
rthumb 30.2105 -56.3597
lclavicle 5.725e-014 -1.90833e-014
lhumerus 77.2719 19.8363 18.1211
lradius 47.6503
lwrist 30.9741
lhand 2.07539 4.43927
lfingers 7.12502
lthumb 27.5767 32.439
rfemur -2.47193 -11.9721 3.17701
rtibia 101.087
rfoot -28.2867 6.94656
rtoes -19.4263
lfemur -16.265 0.703315 11.9821
ltibia 118.779
lfoot -26.0133 -17.208
ltoes -5.41934
2752
root 13.6979 10.2296 -11.7281 -786.063 -173.189 16.7225
lowerback 13.4192 3.92037 3.14122
upperback 0.979715 5.82694 4.45223
thorax -6.6352 2.74353 1.85142
lowerneck 23.7718 -3.83521 0.248557
upperneck 14.3085 -9.13991 11.3921
head 1.23134 -6.20042 3.99853
rclavicle 0 -2.22639e-014
rhumerus 54.0702 -42.9575 -13.5778
rradius 76.6911
rwrist 369.111
rhand 1.41495 -28.2424
rfingers 7.12502
rthumb 26.9449 -56.3413
lclavicle 0 -2.22639e-014
lhumerus 77.1739 20.3274 18.0668
lradius 47.8621
lwrist 31.5031
lhand 2.74709 4.06254
lfingers 7.12502
lthumb 28.2189 31.9579
rfemur -1.36015 -12.6492 2.85445
rtibia 100.862
rfoot -29.0181 6.30219
rtoes -19.8784
lfemur -16.2783 -0.408916 11.487
ltibia 118.716
lfoot -26.1512 -16.2781
ltoes -9.21268
2753
root 13.6686 10.3451 -11.9169 -785.698 -172.578 17.7367
lowerback 13.0241 3.89655 3.15569
upperback 0.663765 5.82433 4.69337
thorax -6.77816 2.75046 2.11428
lowerneck 23.4312 -3.57299 -0.704344
upperneck 14.6306 -9.0569 11.9498
head 1.40748 -6.17148 4.30249
rclavicle 2.8625e-014 0
rhumerus 54.1267 -44.9589 -14.4296
rradius 80.6617
rwrist 369.886
rhand -1.25431 -27.4571
rfingers 7.12502
rthumb 24.3884 -55.9251
lclavicle 2.8625e-014 0
lhumerus 76.583 20.9811 17.9051
lradius 48.2789
lwrist 32.339
lhand 3.2084 4.13812
lfingers 7.12502
lthumb 28.6597 31.9599
rfemur -0.0754894 -13.4265 2.78465
rtibia 100.532
rfoot -29.6056 5.51781
rtoes -20.5402
lfemur -16.3985 -1.6481 11.299
ltibia 118.627
lfoot -26.1492 -15.6041
ltoes -12.5495
2754
root 13.6534 10.3605 -12.1298 -785.522 -172.53 19.0021
lowerback 12.7144 3.89931 3.98578
upperback 0.254798 5.9712 4.69712
thorax -6.96152 2.79769 1.63975
lowerneck 23.9575 -3.68011 -0.44849
upperneck 14.3122 -9.13675 12.3919
head 1.25358 -6.24298 4.43715
rclavicle -4.13472e-014 5.56597e-014
rhumerus 53.4551 -46.9918 -15.3851
rradius 84.6035
rwrist 370.356
rhand -3.20542 -26.1131
rfingers 7.12502
rthumb 22.5168 -54.8203
lclavicle -4.13472e-014 5.56597e-014
lhumerus 76.6942 21.4673 17.4531
lradius 48.462
lwrist 33.1063
lhand 3.71443 4.24725
lfingers 7.12502
lthumb 29.143 31.9863
rfemur 0.726874 -14.0243 3.46456
rtibia 100.68
rfoot -30.0487 5.59578
rtoes -19.8417
lfemur -17.1726 -2.90149 12.3599
ltibia 119.199
lfoot -26.2355 -15.7778
ltoes -14.5275
2755
root 13.6251 10.4878 -12.3126 -785.25 -171.679 19.7293
lowerback 12.2607 4.03176 3.88777
upperback -0.0123254 6.13187 4.45363
thorax -6.97583 2.88848 1.42879
lowerneck 23.9908 -3.78846 -0.472484
upperneck 14.1418 -9.26466 12.8123
head 1.21815 -6.30897 4.58609
rclavicle -5.40694e-014 6.36111e-015
rhumerus 53.0398 -49.225 -16.489
rradius 88.3213
rwrist 370.755
rhand -6.77053 -22.9787
rfingers 7.12502
rthumb 19.0915 -52.0617
lclavicle -5.40694e-014 6.36111e-015
lhumerus 76.7735 22.5143 16.3429
lradius 48.4754
lwrist 34.5824
lhand 3.69444 4.17215
lfingers 7.12502
lthumb 29.1239 31.9145
rfemur 2.10186 -14.4463 3.10377
rtibia 100.185
rfoot -30.3982 5.93382
rtoes -19.3417
lfemur -16.7945 -4.17178 11.7166
ltibia 118.863
lfoot -26.2195 -15.3993
ltoes -15.5399
2756
root 13.5946 10.6158 -12.4887 -784.786 -170.203 20.0502
lowerback 11.7977 4.22814 3.04996
upperback -0.313224 6.27447 3.9963
thorax -7.07296 2.99722 1.40413
lowerneck 23.5384 -3.84961 -0.522227
upperneck 14.3898 -9.40796 13.176
head 1.37439 -6.35526 4.68871
rclavicle -1.17681e-013 -5.40694e-014
rhumerus 53.1961 -51.3385 -18.1902
rradius 91.9293
rwrist 371.136
rhand -10.3145 -22.0762
rfingers 7.12502
rthumb 15.6808 -51.4608
lclavicle -1.17681e-013 -5.40694e-014
lhumerus 76.5078 24.0515 14.2262
lradius 48.4932
lwrist 37.3383
lhand 3.60784 3.94478
lfingers 7.12502
lthumb 29.0412 31.7014
rfemur 3.24873 -14.902 1.78525
rtibia 99.7751
rfoot -30.866 5.11609
rtoes -21.6654
lfemur -16.516 -5.30682 10.0613
ltibia 118.49
lfoot -25.9181 -15.0693
ltoes -15.4274
2757
root 13.5683 10.7322 -12.6611 -784.381 -169.533 20.7692
lowerback 11.3415 4.31244 2.92105
upperback -0.649217 6.38238 4.04781
thorax -7.19659 3.06148 1.53169
lowerneck 23.6334 -3.71793 -1.06895
upperneck 14.307 -9.32053 13.5642
head 1.35409 -6.32739 4.90525
rclavicle 4.77083e-014 8.11041e-014
rhumerus 54.4373 -53.16 -20.4189
rradius 95.6138
rwrist 370.955
rhand -13.3402 -21.4953
rfingers 7.12502
rthumb 12.7652 -51.0851
lclavicle 4.77083e-014 8.11041e-014
lhumerus 75.8372 24.8975 13.5671
lradius 48.6726
lwrist 38.9853
lhand 4.02202 3.56252
lfingers 7.12502
lthumb 29.4367 31.2503
rfemur 4.25879 -15.3393 1.76634
rtibia 99.227
rfoot -31.2874 5.40705
rtoes -20.6339
lfemur -16.4058 -5.98851 10.1335
ltibia 118.082
lfoot -26.041 -14.9134
ltoes -16.6914
2758
root 13.5461 10.8427 -12.8279 -784.125 -169.59 21.8854
lowerback 10.8808 4.28773 3.4555
upperback -0.853858 6.42779 4.53188
thorax -7.15637 3.06936 1.76752
lowerneck 23.8549 -3.41343 -2.1495
upperneck 14.0923 -9.09346 14.0937
head 1.28122 -6.25278 5.2592
rclavicle 5.08889e-014 -5.08889e-014
rhumerus 56.5248 -54.9082 -23.1059
rradius 99.3623
rwrist 370.283
rhand -15.4573 -21.8264
rfingers 7.12502
rthumb 10.7237 -51.5327
lclavicle 5.08889e-014 -5.08889e-014
lhumerus 74.8471 25.9526 13.0947
lradius 48.8668
lwrist 40.5919
lhand 4.34612 3.60705
lfingers 7.12502
lthumb 29.7461 31.24
rfemur 5.24654 -15.7305 2.98187
rtibia 98.5843
rfoot -31.173 4.4821
rtoes -22.2089
lfemur -16.1267 -6.39431 11.6001
ltibia 117.564
lfoot -27.1041 -14.1148
ltoes -20.1529
2759
root 13.5245 10.9551 -12.9901 -784.01 -169.511 22.9381
lowerback 10.6558 4.29764 3.98378
upperback -1.01565 6.5115 4.73211
thorax -7.16989 3.08991 1.68638
lowerneck 23.8177 -3.29496 -2.65451
upperneck 13.9076 -8.97964 14.464
head 1.2402 -6.19675 5.45979
rclavicle 5.725e-014 2.54444e-014
rhumerus 58.4008 -56.6855 -26.0886
rradius 103.035
rwrist 369.568
rhand -17.9624 -23.1617
rfingers 7.12502
rthumb 8.3066 -52.9784
lclavicle 5.725e-014 2.54444e-014
lhumerus 74.1391 26.9727 12.4003
lradius 49.1173
lwrist 42.2207
lhand 4.58677 3.72375
lfingers 7.12502
lthumb 29.9758 31.3154
rfemur 6.39419 -16.1875 3.93086
rtibia 97.925
rfoot -31.1904 3.75063
rtoes -23.254
lfemur -15.8806 -7.40958 12.3326
ltibia 117.032
lfoot -27.7506 -13.5103
ltoes -22.9915
2760
root 13.5015 11.0711 -13.1484 -783.888 -169.123 23.836
lowerback 10.5369 4.39263 4.39206
upperback -1.24013 6.69434 4.54638
thorax -7.27508 3.15966 1.23885
lowerneck 23.4806 -3.43819 -2.43243
upperneck 13.9013 -9.09534 14.6922
head 1.29174 -6.21798 5.48534
rclavicle 5.725e-014 -3.81667e-014
rhumerus 59.8952 -58.6011 -29.0166
rradius 106.477
rwrist 368.833
rhand -19.9115 -27.1481
rfingers 7.12502
rthumb 6.42523 -57.0306
lclavicle 5.725e-014 -3.81667e-014
lhumerus 74.0317 27.8129 11.926
lradius 49.2692
lwrist 43.5909
lhand 4.88411 3.401
lfingers 7.12502
lthumb 30.2594 30.941
rfemur 7.59562 -16.6784 4.39917
rtibia 97.2454
rfoot -31.0423 3.14899
rtoes -24.5243
lfemur -15.8023 -8.89143 12.3596
ltibia 116.555
lfoot -28.0944 -12.932
ltoes -26.5561
2761
root 13.4772 11.1842 -13.2954 -783.514 -168.455 24.4952
lowerback 10.1467 4.52466 4.39308
upperback -1.47352 6.85997 4.40288
thorax -7.28424 3.24294 1.08346
lowerneck 23.3837 -3.60141 -2.51405
upperneck 13.6861 -9.23791 14.78
head 1.25695 -6.26542 5.53142
rclavicle 8.5875e-014 6.67916e-014
rhumerus 62.4271 -60.3352 -32.5025
rradius 109.732
rwrist 367.758
rhand -20.8089 -28.9904
rfingers 7.12502
rthumb 5.55886 -58.8975
lclavicle 8.5875e-014 6.67916e-014
lhumerus 73.7488 28.6227 11.8712
lradius 49.3797
lwrist 44.85
lhand 5.09927 2.88655
lfingers 7.12502
lthumb 30.4647 30.3887
rfemur 8.37023 -17.1056 4.5561
rtibia 96.6311
rfoot -31.2072 2.92346
rtoes -24.4801
lfemur -15.6045 -9.79796 12.2739
ltibia 115.983
lfoot -27.4413 -14.7159
ltoes -22.4634
2762
root 13.4438 11.2925 -13.4279 -782.954 -167.202 24.7214
lowerback 9.55096 4.64338 3.67748
upperback -1.64161 6.90749 4.28633
thorax -7.19205 3.30505 1.38614
lowerneck 23.6415 -3.59164 -3.17595
upperneck 13.2521 -9.20047 14.7514
head 1.10629 -6.24799 5.65019
rclavicle -3.49861e-014 3.81667e-014
rhumerus 66.1836 -61.4179 -36.9003
rradius 112.956
rwrist 366.85
rhand -22.0767 -30.2638
rfingers 7.12502
rthumb 4.3347 -60.1994
lclavicle -3.49861e-014 3.81667e-014
lhumerus 72.9033 29.557 11.7339
lradius 49.5656
lwrist 46.4067
lhand 5.56211 2.4627
lfingers 7.12502
lthumb 30.906 29.8821
rfemur 8.86369 -17.381 3.84876
rtibia 96.1082
rfoot -31.1243 2.80481
rtoes -24.8832
lfemur -15.3333 -10.3737 11.2142
ltibia 115.399
lfoot -26.742 -15.5057
ltoes -19.3769
2763
root 13.4068 11.3921 -13.5566 -782.598 -166.137 25.1142
lowerback 8.99304 4.69187 3.26797
upperback -1.63053 6.88988 4.22129
thorax -6.9003 3.32316 1.59095
lowerneck 23.414 -3.3078 -3.83599
upperneck 13.2118 -8.90887 15.1205
head 1.12028 -6.09335 5.85865
rclavicle 5.08889e-014 1.59028e-014
rhumerus 70.0959 -62.2783 -41.7323
rradius 116.201
rwrist 366.399
rhand -23.6361 -31.3213
rfingers 7.12502
rthumb 2.82882 -61.2823
lclavicle 5.08889e-014 1.59028e-014
lhumerus 71.9345 30.9186 11.3097
lradius 49.8025
lwrist 48.0018
lhand 6.29047 2.18935
lfingers 7.12502
lthumb 31.6001 29.4747
rfemur 9.4978 -17.6542 3.35799
rtibia 95.5775
rfoot -30.9868 2.61234
rtoes -25.7899
lfemur -15.1398 -11.162 10.4163
ltibia 114.875
lfoot -26.3261 -16.1652
ltoes -17.3212
2764
root 13.3816 11.4934 -13.6873 -782.257 -165.339 25.7768
lowerback 8.14838 4.72215 3.02061
upperback -1.39232 6.83811 4.22178
thorax -6.19308 3.32346 1.81444
lowerneck 23.0018 -3.12472 -3.81555
upperneck 12.8932 -8.49633 15.2868
head 1.0355 -5.82886 5.88034
rclavicle 2.8625e-014 3.49861e-014
rhumerus 74.4429 -62.9162 -46.577
rradius 118.742
rwrist 366.751
rhand -24.7744 -32.0549
rfingers 7.12502
rthumb 1.72945 -62.0276
lclavicle 2.8625e-014 3.49861e-014
lhumerus 71.8032 32.2173 12.0412
lradius 49.7385
lwrist 48.133
lhand 7.05048 1.78351
lfingers 7.12502
lthumb 32.3237 28.924
rfemur 10.0739 -18.0969 3.39782
rtibia 95.0287
rfoot -30.7112 2.80412
rtoes -25.653
lfemur -15.0006 -11.755 10.3952
ltibia 114.231
lfoot -27.1494 -15.5132
ltoes -19.3651
2765
root 13.3543 11.6126 -13.8178 -781.911 -164.013 26.1151
lowerback 8.51482 5.00611 2.45081
upperback -2.06851 7.19916 3.49468
thorax -7.0996 3.5041 1.2552
lowerneck 22.6064 -3.51971 -2.89255
upperneck 13.2952 -8.9033 15.2543
head 1.22658 -5.98155 5.70562
rclavicle -8.90555e-014 1.59028e-014
rhumerus 74.5835 -63.2315 -47.4264
rradius 120.474
rwrist 367.676
rhand -27.8674 -33.3933
rfingers 7.12502
rthumb -1.25782 -63.3694
lclavicle -8.90555e-014 1.59028e-014
lhumerus 72.357 32.1926 12.5999
lradius 49.9557
lwrist 48.6934
lhand 7.75749 1.31035
lfingers 7.12502
lthumb 32.9964 28.3113
rfemur 10.9265 -18.429 2.75405
rtibia 94.3391
rfoot -30.5346 3.0022
rtoes -25.2362
lfemur -14.8414 -12.5855 9.34212
ltibia 113.581
lfoot -27.2287 -15.3266
ltoes -20.2888
